                  Another Fine Release Brought to you from-                                   IMAGiNE                   
                                                 

********************************************************************************************************************                                
                                My Soul To Take CAM XViD - IMAGiNE
********************************************************************************************************************

Ripper ...........: IMAGiNE                                       
 IMDB Rating.......:5.0/10                             
Video Codec.......: XVID                                        
 Release Date......:19/10/10
Audio Codec.......:MP3                                          
 Theatre Date......:08/10/10
Audio Bitrate.....:128                                                                  Runtime.......:1h 37mn
Subtitles.........:NIL                                                 Language..........:ENGLISH
Resolution...... 640 x 272                                      
IMDb URL..........:http://www.imdb.com/title/tt0872230/


[color=yellow]DETAILS:[/color]

Video
ID                               : 0
Format                           : MPEG-4 Visual
Format profile                   : Advanced Simple@L5
Format settings, BVOP            : Yes
Format settings, QPel            : No
Format settings, GMC             : No warppoints
Format settings, Matrix          : Default (H.263)
Muxing mode                      : Packed bitstream
Codec ID                         : XVID
Codec ID/Hint                    : XviD
Duration                         : 1h 37mn
Bit rate                         : 876 Kbps
Width                            : 640 pixels
Height                           : 272 pixels
Display aspect ratio             : 2.35
Frame rate                       : 25.000 fps
Resolution                       : 24 bits
Colorimetry                      : 4:2:0
Scan type                        : Progressive
Bits/(Pixel*Frame)               : 0.201
Stream size                      : 611 MiB (86%)
Writing library                  : XviD 1.1.2 (UTC 2006-11-01)

Audio
ID                               : 1
Format                           : MPEG Audio
Format version                   : Version 1
Format profile                   : Layer 3
Codec ID                         : 55
Codec ID/Hint                    : MP3
Duration                         : 1h 37mn
Bit rate mode                    : Constant
Bit rate                         : 128 Kbps
Channel(s)                       : 2 channels
Sampling rate                    : 44.1 KHz
Resolution                       : 16 bits
Stream size                      : 89.3 MiB (13%)
Alignment                        : Split accross interleaves
Interleave, duration             : 40 ms (1.00 video frame)
Interleave, preload duration     : 500 ms


[color=yellow]SOURCES:[/color]

VIDEO:My Soul To Take russian cam .....Thanks relizlab
AUDIO:My Soul To Take LU ......................Thanks m8

[color=yellow]NOTES:[/color]

IMAGiNE bringing you another release..........My Soul To Take



[color=yellow]SCREENS:[/color]

[IMG]http://imagine.takagari.com/my%20soul/vlcsnap-478626.png[/IMG]
[IMG]http://imagine.takagari.com/my%20soul/vlcsnap-479069.png[/IMG]
[IMG]http://imagine.takagari.com/my%20soul/vlcsnap-478831.png[/IMG]
[IMG]http://imagine.takagari.com/my%20soul/vlcsnap-479334.png[/IMG]

[color=yellow]GREETS:[/color]